<?xml version="1.0" standalone="no"?>
<!DOCTYPE svg PUBLIC "-//W3C//DTD SVG 20010904//EN"
 "http://www.w3.org/TR/2001/REC-SVG-20010904/DTD/svg10.dtd">
<svg version="1.0" xmlns="http://www.w3.org/2000/svg"
 width="3000.000000pt" height="2000.000000pt" viewBox="0 0 3000.000000 2000.000000"
 preserveAspectRatio="xMidYMid meet">

<g transform="translate(0.000000,2000.000000) scale(0.100000,-0.100000)"
fill="#000000" stroke="none">
<path d="M18225 15946 c-167 -32 -281 -130 -350 -301 -25 -61 -28 -84 -28
-170 0 -86 4 -112 30 -187 39 -111 97 -212 195 -341 429 -560 463 -614 522
-830 41 -149 201 -599 268 -757 102 -239 238 -469 343 -580 39 -41 77 -89 84
-107 12 -29 11 -37 -13 -86 -15 -29 -38 -103 -53 -163 -14 -60 -45 -183 -69
-274 -24 -91 -52 -217 -63 -280 -122 -718 52 -1484 421 -1851 52 -52 98 -87
143 -110 132 -65 283 -47 383 44 79 74 111 160 142 387 24 178 59 375 73 414
10 27 17 15 141 -231 72 -143 153 -291 181 -329 133 -185 376 -433 598 -611
67 -54 183 -156 257 -228 80 -76 157 -142 189 -159 73 -39 61 -15 -30 60 -87
71 -254 252 -349 379 -219 292 -552 845 -712 1182 -93 197 -207 472 -224 538
-9 37 -27 78 -38 92 l-21 24 -111 -143 c-125 -163 -143 -189 -177 -274 -56
-140 -97 -350 -132 -689 -12 -110 -22 -164 -32 -171 -35 -29 -151 44 -214 136
-44 63 -125 247 -168 377 -70 213 -103 451 -103 738 0 332 38 546 157 865 71
192 95 285 95 366 0 92 -25 141 -129 248 -199 206 -317 445 -486 986 -152 485
-225 627 -499 983 -205 266 -240 316 -283 405 -57 118 -67 193 -33 264 70 149
286 116 749 -116 155 -79 278 -156 369 -233 125 -107 144 -116 247 -124 499
-36 565 -45 711 -94 440 -149 945 -456 1394 -851 146 -128 416 -405 540 -554
333 -401 609 -845 734 -1182 69 -186 88 -229 272 -614 84 -177 189 -403 233
-502 140 -316 257 -536 354 -668 59 -80 140 -122 402 -207 240 -78 500 -174
574 -211 76 -39 194 -116 425 -278 109 -77 249 -172 310 -210 145 -92 221
-151 257 -201 49 -68 51 -67 -158 -67 -390 0 -590 -34 -971 -164 -161 -56
-168 -59 -192 -98 -18 -30 -18 -31 10 -87 16 -31 40 -81 54 -111 28 -60 109
-172 199 -274 32 -36 122 -114 200 -173 259 -195 281 -207 797 -456 173 -83
464 -282 645 -442 63 -56 115 -93 115 -82 0 3 -20 47 -44 98 -36 78 -56 106
-116 164 -40 39 -104 108 -143 155 -150 180 -357 375 -540 509 -31 23 -132 87
-223 141 -224 135 -278 173 -357 249 -67 65 -99 106 -111 147 -6 20 -2 22 50
29 31 4 120 24 197 45 189 51 265 66 437 85 176 20 251 35 423 84 124 36 132
39 135 65 3 19 -8 40 -41 79 -24 28 -71 88 -104 132 -79 105 -159 179 -401
373 -342 273 -645 483 -833 577 -119 60 -503 231 -592 264 -118 43 -119 44
-362 537 -291 589 -433 900 -570 1244 -97 244 -156 362 -290 570 -396 616
-839 1097 -1385 1508 -247 186 -735 499 -878 563 -97 44 -290 103 -482 147
-153 35 -201 42 -385 52 -141 8 -219 17 -237 26 -15 8 -68 48 -117 90 -119 99
-232 169 -426 264 -322 158 -590 222 -780 186z"/>
<path d="M19595 14496 c-27 -6 -45 -14 -40 -16 6 -3 22 -23 36 -45 15 -22 56
-73 92 -114 53 -59 79 -103 133 -218 l68 -143 37 36 c50 48 81 123 86 204 3
60 1 71 -34 135 -31 56 -51 80 -108 122 l-70 53 -75 -1 c-41 -1 -97 -6 -125
-13z"/>
<path d="M4075 8666 c-151 -25 -335 -81 -402 -122 -51 -32 -124 -108 -149
-156 -62 -122 -58 -10 -62 -1720 l-3 -1558 381 0 380 0 2 1497 3 1497 584
-1299 c321 -715 600 -1331 619 -1370 116 -234 267 -337 537 -366 121 -13 272
-6 381 17 150 31 280 120 364 249 24 38 308 656 651 1418 l609 1352 0 -1497 0
-1498 380 0 380 0 0 1538 c0 1303 -3 1547 -15 1605 -42 199 -148 298 -389 366
-402 113 -725 63 -930 -144 -39 -40 -86 -97 -105 -129 -19 -32 -297 -645 -619
-1364 -321 -719 -587 -1310 -590 -1314 -4 -4 -256 570 -561 1275 -305 705
-572 1318 -595 1362 -30 60 -62 101 -126 166 -97 97 -182 147 -307 180 -100
26 -305 34 -418 15z"/>
<path d="M9372 6643 c3 -871 4 -910 22 -953 131 -305 503 -505 1026 -550 64
-5 485 -10 958 -10 l842 0 0 -156 c0 -91 -5 -173 -12 -196 -29 -98 -142 -174
-308 -208 -91 -19 -144 -20 -1307 -20 l-1213 0 0 -255 0 -256 1268 4 c1370 4
1324 2 1565 58 350 82 598 245 703 464 66 138 64 66 64 1598 l0 1387 -375 0
-375 0 -2 -982 -3 -983 -880 0 c-652 0 -893 3 -931 12 -138 33 -224 87 -267
167 l-22 41 -3 873 -2 872 -375 0 -376 0 3 -907z"/>
</g>
</svg>
