<?xml version="1.0" standalone="no"?>
<!DOCTYPE svg PUBLIC "-//W3C//DTD SVG 20010904//EN"
 "http://www.w3.org/TR/2001/REC-SVG-20010904/DTD/svg10.dtd">
<svg version="1.0" xmlns="http://www.w3.org/2000/svg"
 width="1280.000000pt" height="783.000000pt" viewBox="0 0 1280.000000 783.000000"
 preserveAspectRatio="xMidYMid meet">

<g transform="translate(0.000000,783.000000) scale(0.100000,-0.100000)"
fill="#000000" stroke="none">
<path d="M8559 7811 l-24 -19 -3 -971 -2 -971 -24 -16 c-29 -18 -11 -26 -226
96 -85 49 -169 91 -186 95 -20 4 -46 0 -70 -10 -21 -8 -316 -176 -657 -373
-437 -252 -625 -366 -641 -387 l-21 -30 0 -760 c0 -758 0 -761 21 -789 24 -33
1254 -749 1315 -766 21 -6 47 -6 66 -1 17 5 149 78 294 161 145 84 424 245
619 358 195 112 367 216 382 230 18 16 31 43 38 76 8 36 10 565 8 1821 -3
1727 -3 1772 -22 1800 -22 34 -41 49 -106 85 -446 251 -702 390 -718 390 -11
0 -30 -9 -43 -19z m-261 -2947 c119 -69 220 -131 224 -137 4 -7 8 -124 8 -262
0 -137 -4 -255 -8 -261 -4 -6 -107 -69 -229 -139 l-223 -128 -222 128 c-123
70 -226 133 -230 139 -5 6 -7 128 -5 270 l2 259 220 128 c121 70 226 128 233
128 7 1 111 -56 230 -125z"/>
<path d="M1315 6050 c-11 -4 -301 -170 -645 -368 -605 -348 -626 -361 -648
-403 l-22 -44 2 -978 3 -979 24 -19 c13 -10 33 -19 45 -19 18 0 743 408 786
443 51 40 50 28 50 532 0 279 4 484 10 506 14 51 45 76 235 185 228 132 211
133 450 -6 130 -76 186 -114 202 -139 l23 -34 0 -476 c0 -475 0 -477 23 -521
21 -44 35 -52 411 -267 214 -123 397 -223 406 -223 10 0 29 9 44 21 l26 21 -2
999 -3 999 -30 29 c-24 24 -1121 663 -1257 732 -39 20 -98 24 -133 9z"/>
<path d="M11395 6039 c-16 -5 -313 -172 -660 -372 -495 -286 -635 -371 -652
-397 l-23 -33 0 -752 0 -752 23 -34 c18 -27 146 -104 652 -393 555 -317 636
-360 680 -363 49 -4 57 -1 430 206 209 116 390 223 403 237 12 14 22 34 22 45
0 11 -10 30 -22 42 -13 13 -297 179 -633 371 -335 192 -620 359 -632 373 -23
24 -23 29 -23 266 0 201 3 246 15 264 21 29 414 253 445 253 30 0 426 -226
446 -254 11 -16 14 -63 14 -218 0 -185 1 -199 20 -218 11 -11 33 -20 49 -20
19 0 149 70 392 211 436 252 405 233 429 272 18 29 20 52 20 255 l0 222 -32
35 c-39 41 -1258 749 -1303 757 -16 3 -43 2 -60 -3z"/>
<path d="M3396 5278 l-25 -33 62 -32 c34 -17 63 -30 64 -29 5 4 -62 126 -69
126 -4 0 -18 -15 -32 -32z"/>
<path d="M5898 5013 c-81 -148 -174 -316 -206 -376 l-59 -108 -34 53 c-18 29
-38 62 -44 73 -7 14 -11 -176 -13 -619 -1 -352 0 -641 2 -643 2 -3 111 57 243
132 240 137 293 177 293 224 0 13 -20 58 -44 100 -24 42 -49 86 -55 99 l-12
23 50 -26 c28 -14 53 -25 56 -25 3 0 5 295 5 655 0 631 -3 705 -29 705 -3 0
-72 -120 -153 -267z"/>
<path d="M3627 4103 l-237 -408 23 -21 c32 -31 1224 -716 1275 -732 23 -8 45
-12 48 -10 2 3 -152 290 -344 639 -192 349 -386 703 -432 787 -46 83 -87 152
-90 152 -4 0 -113 -183 -243 -407z"/>
</g>
</svg>
