<?xml version="1.0" standalone="no"?>
<!DOCTYPE svg PUBLIC "-//W3C//DTD SVG 20010904//EN"
 "http://www.w3.org/TR/2001/REC-SVG-20010904/DTD/svg10.dtd">
<svg version="1.0" xmlns="http://www.w3.org/2000/svg"
 width="225.000000pt" height="225.000000pt" viewBox="0 0 225.000000 225.000000"
 preserveAspectRatio="xMidYMid meet">

<g transform="translate(0.000000,225.000000) scale(0.100000,-0.100000)"
fill="#000000" stroke="none">
<path d="M1055 2046 c-76 -33 -178 -180 -221 -319 -17 -54 -20 -58 -44 -53
-95 20 -216 28 -286 17 -120 -18 -178 -57 -205 -138 -26 -80 26 -216 133 -350
65 -80 66 -82 47 -99 -38 -34 -118 -150 -148 -214 -71 -149 -43 -257 81 -310
68 -29 212 -37 321 -17 l79 14 9 -26 c45 -122 66 -165 107 -225 78 -114 164
-157 255 -127 80 27 189 172 238 319 19 56 24 63 43 58 57 -15 197 -28 253
-23 95 9 143 27 189 72 34 32 44 50 49 88 14 90 -29 199 -128 330 l-67 87 51
62 c69 85 105 150 130 231 30 97 21 149 -35 202 -67 65 -176 85 -336 65 -52
-7 -103 -13 -113 -14 -14 -1 -25 16 -46 74 -86 232 -230 351 -356 296z m156
-113 c51 -48 131 -191 145 -258 6 -30 4 -31 -51 -49 -31 -9 -84 -30 -118 -45
l-62 -28 -50 24 c-27 12 -81 33 -118 45 -64 21 -68 24 -62 48 14 56 78 188
111 230 76 96 129 105 205 33z m-491 -327 c75 -13 72 0 47 -169 -11 -78 -18
-101 -35 -113 -11 -8 -56 -43 -99 -79 l-78 -65 -33 38 c-124 140 -181 284
-134 342 42 52 185 72 332 46z m1095 -11 c59 -29 72 -60 57 -131 -20 -98 -153
-291 -185 -269 -13 9 -186 147 -188 149 -4 8 -35 242 -32 245 1 3 31 10 66 17
90 19 232 13 282 -11z m-899 -39 c22 -8 57 -22 78 -31 l40 -17 -60 -31 c-32
-18 -76 -43 -96 -55 -48 -30 -48 -29 -13 126 6 26 3 26 51 8z m484 -71 c7 -41
11 -77 9 -79 -5 -5 -173 92 -177 102 -3 9 139 62 149 56 3 -2 12 -37 19 -79z
m-69 -131 c72 -45 87 -59 93 -85 8 -40 8 -267 0 -296 -7 -24 -85 -78 -218
-149 l-80 -42 -60 30 c-33 17 -99 54 -146 84 -86 53 -87 54 -94 100 -8 60 -8
198 0 258 6 44 10 48 73 88 36 23 102 61 145 84 l80 42 60 -30 c33 -17 99 -54
147 -84z m-586 -229 c1 -58 -1 -105 -3 -105 -13 0 -122 97 -120 106 3 11 108
103 118 104 3 0 5 -47 5 -105z m822 67 c82 -66 82 -63 11 -121 -35 -28 -65
-51 -68 -51 -3 0 -5 47 -5 105 0 58 3 105 7 105 3 0 28 -17 55 -38z m-921
-199 c34 -28 72 -58 84 -66 19 -13 25 -32 36 -104 6 -48 15 -106 19 -129 l7
-41 -58 -11 c-73 -15 -202 -15 -260 -1 -24 6 -59 25 -76 41 -29 27 -30 32 -25
80 8 69 46 143 119 235 54 67 61 73 76 60 9 -7 45 -36 78 -64z m1109 18 c69
-85 120 -193 120 -257 0 -37 -5 -58 -19 -73 -41 -45 -174 -63 -302 -40 -97 17
-92 14 -83 64 5 25 13 82 19 127 6 54 15 85 25 90 8 5 52 40 97 78 46 37 86
68 90 67 5 -1 28 -27 53 -56z m-780 -238 l60 -32 -57 -25 c-85 -38 -105 -41
-111 -19 -7 21 -27 132 -27 146 0 5 17 -2 38 -15 20 -12 64 -37 97 -55z m425
-24 c-8 -45 -16 -69 -24 -66 -6 2 -41 14 -79 27 -37 13 -66 27 -65 32 2 4 41
30 88 56 62 36 86 45 88 35 2 -8 -2 -46 -8 -84z m-194 -88 c38 -16 88 -35 112
-42 30 -9 42 -18 42 -31 0 -32 -47 -136 -95 -208 -95 -143 -183 -146 -274 -9
-44 66 -107 218 -94 229 4 4 42 19 83 34 41 15 86 33 100 41 35 20 49 19 126
-14z"/>
<path d="M1055 1276 c-123 -57 -126 -232 -5 -293 24 -13 58 -23 75 -23 17 0
51 10 75 23 111 56 120 204 17 281 -33 25 -121 32 -162 12z"/>
</g>
</svg>
