<?xml version="1.0" standalone="no"?>
<!DOCTYPE svg PUBLIC "-//W3C//DTD SVG 20010904//EN"
 "http://www.w3.org/TR/2001/REC-SVG-20010904/DTD/svg10.dtd">
<svg version="1.0" xmlns="http://www.w3.org/2000/svg"
 width="768.000000pt" height="605.000000pt" viewBox="0 0 768.000000 605.000000"
 preserveAspectRatio="xMidYMid meet">

<g transform="translate(0.000000,605.000000) scale(0.100000,-0.100000)"
fill="#000000" stroke="none">
<path d="M2065 5901 c-302 -109 -599 -244 -812 -369 -125 -73 -133 -124 -44
-276 64 -110 131 -240 131 -254 0 -5 -37 -34 -82 -63 -347 -228 -661 -542
-858 -859 -374 -602 -416 -1273 -120 -1888 107 -221 212 -377 389 -577 151
-169 385 -370 590 -505 45 -29 81 -57 81 -62 0 -14 -68 -145 -131 -254 -65
-111 -74 -155 -41 -209 32 -51 351 -219 652 -342 198 -82 347 -133 383 -133
73 0 113 51 242 310 31 63 58 116 60 118 1 1 63 -13 136 -32 646 -170 1380
-219 2094 -140 175 19 399 56 577 95 76 17 142 29 146 27 5 -1 84 -88 176
-191 93 -104 179 -192 193 -198 44 -17 81 -10 235 45 273 97 525 210 784 352
161 88 177 132 98 269 -55 96 -144 271 -144 283 0 5 33 31 73 57 174 116 313
229 471 383 135 133 224 235 243 279 32 77 33 76 -361 472 -198 200 -381 376
-405 392 -82 53 -134 34 -213 -77 -57 -81 -164 -204 -177 -204 -11 0 -30 197
-43 452 -9 175 -9 277 0 450 14 253 32 448 43 448 13 0 120 -123 175 -201 79
-113 133 -133 215 -80 24 16 204 190 401 387 403 406 400 402 357 490 -15 33
-79 105 -198 225 -185 185 -270 257 -463 392 -65 45 -118 88 -118 96 0 15 57
126 142 274 44 76 50 92 45 128 -9 71 -53 103 -343 247 -271 136 -642 282
-714 282 -70 0 -92 -28 -221 -275 -63 -121 -85 -155 -98 -151 -127 40 -381 96
-587 131 -313 52 -598 75 -946 75 -455 0 -832 -39 -1248 -130 -74 -17 -140
-30 -145 -30 -6 0 -85 84 -175 186 -90 102 -176 192 -191 200 -46 23 -86 16
-254 -45z m375 -271 c95 -107 178 -201 184 -207 9 -10 37 -7 134 17 609 149
1317 190 1978 114 272 -31 582 -92 849 -168 l115 -33 64 133 c53 109 158 307
172 323 5 5 266 -92 394 -146 109 -47 359 -170 468 -230 l63 -35 -22 -37 c-84
-142 -217 -407 -208 -415 2 -2 57 -38 123 -80 224 -145 400 -290 570 -467 59
-62 115 -123 123 -136 16 -25 15 -25 -338 -379 -195 -195 -356 -354 -359 -354
-4 0 -26 28 -50 62 -59 84 -187 216 -284 294 -44 35 -81 62 -83 61 -2 -2 -12
-62 -23 -133 -74 -491 -74 -1087 0 -1578 11 -71 21 -131 23 -132 2 -2 39 25
83 60 98 78 239 224 289 300 21 31 41 56 44 56 3 0 165 -159 360 -354 l354
-354 -17 -27 c-29 -44 -243 -260 -330 -334 -114 -96 -226 -179 -363 -267 -65
-43 -120 -78 -122 -80 -5 -5 139 -296 188 -379 22 -38 37 -72 33 -76 -4 -4
-61 -36 -127 -72 -215 -116 -482 -232 -738 -322 -106 -37 -109 -38 -126 -19
-16 17 -335 378 -351 397 -3 4 -73 -9 -155 -29 -270 -64 -583 -111 -914 -135
-208 -15 -743 -6 -941 15 -355 39 -737 113 -998 194 l-62 20 -106 -209 c-58
-115 -113 -218 -123 -230 l-16 -20 -95 34 c-255 93 -491 198 -691 308 -71 38
-129 72 -129 73 0 2 23 43 52 92 55 95 182 354 176 358 -1 2 -47 31 -101 65
-357 223 -678 531 -882 845 -225 346 -338 767 -306 1139 42 470 238 876 606
1256 182 187 367 338 581 472 54 34 101 63 102 65 6 4 -121 263 -176 358 -29
49 -52 90 -52 92 0 8 281 155 400 209 204 94 551 227 576 222 6 -1 88 -90 184
-197z"/>
<path d="M3730 4559 c-142 -10 -291 -26 -298 -34 -3 -2 11 -21 29 -42 19 -21
427 -480 908 -1021 480 -541 875 -981 878 -979 2 3 0 79 -6 169 -33 498 4
1048 105 1562 19 98 34 180 32 181 -2 2 -68 19 -148 39 -458 112 -1002 158
-1500 125z m820 -143 c80 -8 192 -22 250 -30 120 -18 403 -75 418 -85 7 -4 4
-38 -9 -101 -61 -297 -99 -674 -108 -1064 l-6 -299 -700 787 c-385 433 -701
792 -703 796 -8 23 626 19 858 -4z"/>
<path d="M1715 3883 c-332 -277 -491 -581 -472 -906 14 -234 117 -452 312
-655 90 -94 225 -212 243 -212 5 0 17 48 26 108 78 513 79 1065 5 1580 -10 73
-19 137 -19 143 0 17 -15 8 -95 -58z m16 -358 c27 -276 15 -1023 -20 -1151 -6
-25 -8 -24 -77 48 -353 372 -353 834 0 1206 59 62 71 71 77 55 3 -10 13 -81
20 -158z"/>
<path d="M2894 3500 c3 -47 9 -202 12 -345 11 -455 -28 -900 -117 -1339 -17
-82 -27 -152 -22 -157 11 -11 234 -64 388 -93 137 -26 302 -48 500 -68 180
-18 686 -15 884 6 91 9 167 19 170 21 2 3 -7 18 -21 33 -14 15 -420 472 -903
1017 -483 545 -882 995 -888 1000 -6 7 -7 -20 -3 -75z m870 -1098 c372 -419
676 -766 676 -771 0 -25 -529 -25 -810 0 -239 21 -692 98 -716 121 -2 3 6 66
20 139 63 340 93 653 103 1047 l6 273 22 -23 c12 -13 327 -366 699 -786z"/>
</g>
</svg>
